<?xml version="1.0" standalone="no"?><!DOCTYPE svg PUBLIC "-//W3C//DTD SVG 1.1//EN" "http://www.w3.org/Graphics/SVG/1.1/DTD/svg11.dtd"><svg t="1496393264822" class="icon" style="" viewBox="0 0 1024 1024" version="1.1" xmlns="http://www.w3.org/2000/svg" p-id="6004" xmlns:xlink="http://www.w3.org/1999/xlink" width="24" height="24" fill="#666"><defs><style type="text/css"></style></defs><path d="M895.63008 37.30688 128.36864 37.30688C88.73856 37.30688 56.60672 69.43872 56.60672 109.0688l0 805.8624c0 39.63776 32.13184 71.76192 71.76192 71.76192l767.26144 0c39.63776 0 71.76192-32.12544 71.76192-71.76192L967.392 109.0688C967.39328 69.43872 935.26784 37.30688 895.63008 37.30688zM282.93888 185.16992c6.85312-16.94464 24.79488-27.1104 42.4896-23.59296 16.13312 3.21408 26.93248 12.95104 30.75072 28.9472 3.85408 16.09728-1.33248 29.62944-14.304 40.096-1.09312 0.88064-2.24256 2.32064-2.41024 3.61984-1.81504 14.19904-1.82144 28.44928-0.53248 42.68672 0.5824 6.3808 1.61152 12.7232 2.44608 19.14624l0.30848 0c2.1376 9.53856 8.31872 35.38432 15.1296 48.80384 0.01408 0.02176 0.02816 0.04224 0.04224 0.06272 11.19104 24.55552 26.37824 46.4064 47.17056 63.92704 52.32256 44.08704 110.69312 54.78144 173.8624 27.18336 44.64896-19.50336 74.00576-54.67648 92.61824-99.19104 0 0 11.84384-31.19744 13.504-51.55456 2.0608-16.06528 2.3488-32.19072 0.8832-48.39424-0.2944-3.25504-1.50784-5.3888-4.128-7.46752-14.0224-11.11552-18.23616-30.84928-10.30272-46.90816 7.91936-16.03072 25.92256-24.75904 43.15008-20.52736 16.46848 4.04736 26.3424 14.752 29.60896 31.3088 2.92224 14.79424-4.15616 30.3552-17.4144 38.8352-1.89312 1.21216-2.27072 2.36928-2.25792 4.59008 0.09088 14.69312 0.01536 29.38752-0.28032 44.06912-0.09728 5.02144-0.98688 10.0288-1.58336 15.64288 0 0-5.04064 24.88192-11.92064 45.57568-11.72608 32.90368-29.69344 62.00704-54.60736 86.71104-31.31904 31.0592-68.47616 51.02464-112.22784 58.10944-6.45376 1.04448-12.96384 1.696-19.44704 2.53056l-23.0912 0c-0.86912-0.19584-1.73056-0.49792-2.61376-0.56064-37.49248-2.70464-71.45984-15.2704-101.90336-37.12128-39.65184-28.45312-66.62528-66.37312-82.67392-112.20608-3.40608-9.77664-8.83712-27.05792-11.0592-43.4496-0.10496-1.44384-0.11904-2.44992-0.25984-3.43808-2.62144-18.2208-3.168-36.52224-1.63328-54.848 0.25216-3.05536-0.5184-4.5312-3.0272-6.1824C281.99296 221.50656 276.10624 202.05568 282.93888 185.16992zM934.208 883.50464c0 48.96896-20.88192 68.14208-54.912 68.14208l-25.62176 0c6.24768-13.58464 9.73312-28.70528 9.73312-44.63488 0-52.46848-37.75232-96.0896-87.56224-105.25312 12.7552 19.74272 21.4208 58.272 21.4208 102.58176 0 16.84352-1.2608 32.84608-3.51872 47.30752l-74.7584 0c-2.2528-14.46144-3.5136-30.464-3.5136-47.30752 0-44.30848 8.65536-82.83904 21.41696-102.58176-49.81376 9.16608-87.56736 52.78464-87.56736 105.25312 0 15.93344 3.49184 31.05024 9.7344 44.63488l-121.75104 0 5.62176-8.23808c9.61536-10.8096-4.7936-16.8128-4.7936-16.8128l-49.344 0c-16.82688 1.20448-7.18976 18.0352-7.18976 18.0352l5.06624 7.0144-120.62848 0c6.24384-13.58464 9.73312-28.70144 9.73312-44.63488 0-52.46848-37.77024-96.0896-87.56224-105.25312 12.75776 19.74272 21.41952 58.272 21.41952 102.58176 0 16.84352-1.26208 32.84608-3.51872 47.30752L231.35232 951.64672c-2.25664-14.46144-3.51488-30.464-3.51488-47.30752 0-44.30464 8.6592-82.83904 21.41952-102.58176-49.81376 9.16608-87.57248 52.78464-87.57248 105.25312 0 15.9296 3.48928 31.05024 9.73312 44.63488L147.61728 951.64544c-65.53984 0-56.27776-75.54048-56.27776-75.54048L91.33952 659.04c20.74368-119.99488 100.74752-45.90976 100.74752-45.90976l69.5936 77.01888c53.32736 42.96064 133.33504 42.96064 133.33504 42.96064l282.91712 0c56.28928 0 112.59136-53.31968 112.59136-53.31968l69.62176-74.08128c66.65088-50.3488 74.06208 87.4048 74.06208 87.4048L934.208 883.50464z" p-id="6005"></path></svg>